<svg data-v-423bf9ae="" xmlns="http://www.w3.org/2000/svg" viewBox="0 0 303.3314732142857 60" class="font"><!----><!----><!----><g data-v-423bf9ae="" id="50c69e34-75ea-48f3-9b57-2310bb3f0a29" fill="black" transform="matrix(4.285714149475098,0,0,4.285714149475098,-1.1216425895690918,-0.4352668821811676)"><path d="M6.10 8.34L6.10 8.34L6.10 8.34Q6.10 9.34 5.21 10.04L5.21 10.04L5.21 10.04Q4.33 10.74 3.05 10.74L3.05 10.74L3.05 10.74Q2.30 10.74 1.56 10.50L1.56 10.50L1.56 10.50Q1.22 10.37 0.90 10.21L0.90 10.21L0.90 10.21Q0.58 10.04 0.26 9.83L0.26 9.83L0.80 9.13L1.26 8.42L1.56 8.58L1.27 9.35L1.27 9.35Q1.53 9.57 2.09 9.84L2.09 9.84L2.09 9.84Q2.62 10.07 3.35 10.07L3.35 10.07L3.35 10.07Q4.06 10.07 4.60 9.69L4.60 9.69L4.60 9.69Q5.14 9.31 5.14 8.71L5.14 8.71L5.14 8.71Q5.14 8.14 4.66 7.82L4.66 7.82L4.66 7.82Q4.15 7.49 3.19 7.23L3.19 7.23L3.19 7.23Q2.05 6.90 1.36 6.51L1.36 6.51L1.36 6.51Q0.68 6.11 0.68 5.17L0.68 5.17L0.68 5.17Q0.68 4.22 1.53 3.67L1.53 3.67L1.53 3.67Q1.93 3.40 2.44 3.25L2.44 3.25L2.44 3.25Q2.95 3.11 3.57 3.11L3.57 3.11L3.57 3.11Q4.17 3.11 4.83 3.23L4.83 3.23L4.83 3.23Q5.17 3.30 5.37 3.35L5.37 3.35L5.37 3.35Q5.56 3.41 5.74 3.48L5.74 3.48L5.21 4.91L4.92 4.81L4.94 4.17L4.94 4.17Q4.62 4.02 4.18 3.90L4.18 3.90L4.18 3.90Q3.90 3.82 3.70 3.79L3.70 3.79L3.70 3.79Q3.50 3.77 3.28 3.77L3.28 3.77L3.28 3.77Q2.50 3.77 2.08 4.06L2.08 4.06L2.08 4.06Q1.66 4.36 1.66 4.83L1.66 4.83L1.66 4.83Q1.66 5.31 2.10 5.65L2.10 5.65L2.10 5.65Q2.56 5.96 3.76 6.27L3.76 6.27L3.76 6.27Q4.96 6.59 5.52 7.08L5.52 7.08L5.52 7.08Q6.10 7.53 6.10 8.34ZM13.06 3.11L13.05 5.61L13.05 7.94L13.06 9.51L13.06 9.51Q13.06 10.06 13.11 10.07L13.11 10.07L13.89 10.22L13.90 10.57L13.19 10.53L12.46 10.53L11.94 10.56L11.95 8.98L11.95 8.98Q11.43 9.87 10.75 10.30L10.75 10.30L10.75 10.30Q10.08 10.74 9.33 10.74L9.33 10.74L9.33 10.74Q8.42 10.74 7.84 10.13L7.84 10.13L7.84 10.13Q7.26 9.52 7.26 8.54L7.26 8.54L7.26 5.95L7.18 3.97L6.29 3.82L6.29 3.47L6.29 3.47Q6.52 3.47 6.71 3.44L6.71 3.44L6.71 3.44Q6.90 3.41 7.21 3.34L7.21 3.34L7.21 3.34Q7.70 3.26 8.11 3.11L8.11 3.11L8.36 3.11L8.30 5.53L8.30 7.49L8.30 7.49Q8.30 8.09 8.39 8.53L8.39 8.53L8.39 8.53Q8.47 8.96 8.66 9.27L8.66 9.27L8.66 9.27Q9.03 9.88 9.83 9.88L9.83 9.88L9.83 9.88Q10.79 9.88 11.39 9.06L11.39 9.06L11.39 9.06Q11.95 8.21 11.95 6.97L11.95 6.97L11.95 5.95L11.89 3.97L10.99 3.82L10.99 3.47L10.99 3.47Q11.20 3.47 11.40 3.44L11.40 3.44L11.40 3.44Q11.59 3.41 11.89 3.34L11.89 3.34L11.89 3.34Q12.39 3.25 12.80 3.11L12.80 3.11L13.06 3.11ZM16.37 2.01L16.37 4.29L16.37 4.29Q16.90 3.67 17.44 3.39L17.44 3.39L17.44 3.39Q17.99 3.11 18.58 3.11L18.58 3.11L18.58 3.11Q19.93 3.11 20.74 4.09L20.74 4.09L20.74 4.09Q21.54 5.06 21.54 6.64L21.54 6.64L21.54 6.64Q21.54 8.35 20.47 9.57L20.47 9.57L20.47 9.57Q19.95 10.15 19.30 10.44L19.30 10.44L19.30 10.44Q18.66 10.74 17.87 10.74L17.87 10.74L17.87 10.74Q17.17 10.74 16.60 10.63L16.60 10.63L16.60 10.63Q16.04 10.53 15.36 10.53L15.36 10.53L15.17 10.53L14.91 10.60L15.26 10.06L15.26 10.06Q15.26 9.63 15.30 8.96L15.30 8.96L15.30 8.96Q15.33 8.29 15.33 8.05L15.33 8.05L15.33 3.31L15.27 0.95L14.37 0.81L14.37 0.45L15.26 0.32L15.26 0.32Q15.58 0.26 16.14 0.10L16.14 0.10L16.39 0.10L16.37 2.01ZM16.38 6.04L16.38 6.04L16.38 9.63L16.38 9.63Q16.55 9.76 17.09 9.97L17.09 9.97L17.09 9.97Q17.59 10.15 18.27 10.15L18.27 10.15L18.27 10.15Q19.17 10.15 19.79 9.25L19.79 9.25L19.79 9.25Q20.41 8.34 20.41 6.99L20.41 6.99L20.41 6.99Q20.41 5.60 19.81 4.78L19.81 4.78L19.81 4.78Q19.21 3.97 18.10 3.97L18.10 3.97L18.10 3.97Q17.30 3.97 16.84 4.53L16.84 4.53L16.84 4.53Q16.38 5.09 16.38 6.04ZM27.46 8.34L27.46 8.34L27.46 8.34Q27.46 9.34 26.58 10.04L26.58 10.04L26.58 10.04Q25.69 10.74 24.41 10.74L24.41 10.74L24.41 10.74Q23.66 10.74 22.92 10.50L22.92 10.50L22.92 10.50Q22.58 10.37 22.26 10.21L22.26 10.21L22.26 10.21Q21.95 10.04 21.63 9.83L21.63 9.83L22.16 9.13L22.63 8.42L22.92 8.58L22.64 9.35L22.64 9.35Q22.89 9.57 23.45 9.84L23.45 9.84L23.45 9.84Q23.98 10.07 24.71 10.07L24.71 10.07L24.71 10.07Q25.43 10.07 25.96 9.69L25.96 9.69L25.96 9.69Q26.50 9.31 26.50 8.71L26.50 8.71L26.50 8.71Q26.50 8.14 26.02 7.82L26.02 7.82L26.02 7.82Q25.51 7.49 24.56 7.23L24.56 7.23L24.56 7.23Q23.41 6.90 22.73 6.51L22.73 6.51L22.73 6.51Q22.04 6.11 22.04 5.17L22.04 5.17L22.04 5.17Q22.04 4.22 22.89 3.67L22.89 3.67L22.89 3.67Q23.29 3.40 23.81 3.25L23.81 3.25L23.81 3.25Q24.32 3.11 24.94 3.11L24.94 3.11L24.94 3.11Q25.53 3.11 26.19 3.23L26.19 3.23L26.19 3.23Q26.53 3.30 26.73 3.35L26.73 3.35L26.73 3.35Q26.93 3.41 27.11 3.48L27.11 3.48L26.57 4.91L26.28 4.81L26.31 4.17L26.31 4.17Q25.99 4.02 25.55 3.90L25.55 3.90L25.55 3.90Q25.26 3.82 25.06 3.79L25.06 3.79L25.06 3.79Q24.87 3.77 24.64 3.77L24.64 3.77L24.64 3.77Q23.87 3.77 23.44 4.06L23.44 4.06L23.44 4.06Q23.02 4.36 23.02 4.83L23.02 4.83L23.02 4.83Q23.02 5.31 23.46 5.65L23.46 5.65L23.46 5.65Q23.93 5.96 25.12 6.27L25.12 6.27L25.12 6.27Q26.32 6.59 26.88 7.08L26.88 7.08L26.88 7.08Q27.46 7.53 27.46 8.34ZM33.81 8.86L33.81 8.86L34.14 9.15L34.14 9.15Q33.78 9.64 33.02 10.19L33.02 10.19L33.02 10.19Q32.27 10.74 31.29 10.74L31.29 10.74L31.29 10.74Q29.81 10.74 28.89 9.78L28.89 9.78L28.89 9.78Q27.98 8.83 27.98 7.23L27.98 7.23L27.98 7.23Q27.98 5.50 29.13 4.31L29.13 4.31L29.13 4.31Q30.29 3.11 31.99 3.11L31.99 3.11L31.99 3.11Q32.74 3.11 33.28 3.30L33.28 3.30L33.81 3.47L33.35 5.03L32.99 4.96L32.99 4.25L32.99 4.25Q32.90 4.17 32.44 3.97L32.44 3.97L32.44 3.97Q31.99 3.77 31.48 3.77L31.48 3.77L31.48 3.77Q30.37 3.77 29.74 4.60L29.74 4.60L29.74 4.60Q29.11 5.43 29.11 6.85L29.11 6.85L29.11 6.85Q29.11 8.28 29.79 9.08L29.79 9.08L29.79 9.08Q30.48 9.88 31.72 9.88L31.72 9.88L31.72 9.88Q32.48 9.88 33.04 9.50L33.04 9.50L33.04 9.50Q33.30 9.32 33.50 9.16L33.50 9.16L33.50 9.16Q33.70 9.00 33.81 8.86ZM36.39 6.97L36.39 7.82L36.46 10.07L37.42 10.22L37.42 10.57L35.86 10.53L34.48 10.57L34.48 10.22L35.30 10.07L35.34 7.83L35.34 6.29L35.28 3.93L34.37 3.78L34.37 3.43L34.37 3.43Q34.64 3.43 34.79 3.41L34.79 3.41L34.79 3.41Q34.93 3.40 35.29 3.32L35.29 3.32L35.29 3.32Q35.64 3.25 36.11 3.11L36.11 3.11L36.39 3.11L36.28 5.29L36.28 5.29Q36.76 4.21 37.33 3.65L37.33 3.65L37.33 3.65Q37.59 3.38 37.90 3.25L37.90 3.25L37.90 3.25Q38.20 3.11 38.53 3.11L38.53 3.11L38.53 3.11Q38.66 3.11 38.79 3.13L38.79 3.13L38.79 3.13Q38.93 3.16 39.06 3.20L39.06 3.20L39.06 3.20Q39.20 3.24 39.31 3.32L39.31 3.32L39.31 3.32Q39.05 3.81 38.85 4.25L38.85 4.25L38.85 4.25Q38.82 4.34 38.74 4.57L38.74 4.57L38.74 4.57Q38.65 4.80 38.62 4.91L38.62 4.91L38.62 4.91Q38.38 4.86 38.33 4.79L38.33 4.79L38.33 4.79Q38.33 4.69 38.35 4.66L38.35 4.66L38.35 4.66Q38.35 4.15 38.26 4.10L38.26 4.10L38.26 4.10Q38.16 4.06 38.04 4.06L38.04 4.06L38.04 4.06Q37.39 4.13 36.90 4.96L36.90 4.96L36.90 4.96Q36.67 5.39 36.53 5.90L36.53 5.90L36.53 5.90Q36.39 6.41 36.39 6.97L36.39 6.97ZM40.67 0.98L40.67 0.98L40.67 0.98Q40.67 0.68 40.87 0.48L40.87 0.48L40.87 0.48Q41.07 0.27 41.40 0.24L41.40 0.24L41.40 0.24Q41.70 0.24 41.92 0.46L41.92 0.46L41.92 0.46Q42.13 0.67 42.13 0.97L42.13 0.97L42.13 0.97Q42.13 1.27 41.93 1.47L41.93 1.47L41.93 1.47Q41.74 1.67 41.40 1.70L41.40 1.70L41.40 1.70Q41.12 1.70 40.88 1.49L40.88 1.49L40.88 1.49Q40.67 1.25 40.67 0.98ZM41.93 5.03L41.93 7.82L41.98 10.07L42.79 10.22L42.79 10.57L41.40 10.53L40.01 10.57L40.01 10.22L40.84 10.07L40.88 7.83L40.88 6.33L40.81 3.97L39.90 3.82L39.90 3.47L39.90 3.47Q40.20 3.43 40.47 3.39L40.47 3.39L40.47 3.39Q40.75 3.35 40.80 3.34L40.80 3.34L41.69 3.11L41.95 3.11L41.93 5.03ZM44.50 10.41L44.50 10.41L44.50 11.35L44.55 13.59L45.51 13.75L45.51 14.10L43.98 14.06L42.60 14.10L42.60 13.75L43.42 13.59L43.45 11.35L43.45 6.29L43.39 3.93L42.49 3.78L42.49 3.43L42.49 3.43Q42.75 3.43 42.89 3.41L42.89 3.41L42.89 3.41Q43.02 3.40 43.42 3.32L43.42 3.32L43.42 3.32Q43.81 3.25 44.31 3.11L44.31 3.11L44.61 3.11L44.49 4.49L44.49 4.49Q44.74 4.15 45.02 3.88L45.02 3.88L45.02 3.88Q45.30 3.61 45.61 3.44L45.61 3.44L45.61 3.44Q45.92 3.28 46.19 3.19L46.19 3.19L46.19 3.19Q46.47 3.11 46.80 3.11L46.80 3.11L46.80 3.11Q48.10 3.11 48.88 4.09L48.88 4.09L48.88 4.09Q49.66 5.08 49.66 6.66L49.66 6.66L49.66 6.66Q49.66 8.34 48.62 9.54L48.62 9.54L48.62 9.54Q48.10 10.14 47.43 10.44L47.43 10.44L47.43 10.44Q46.77 10.74 45.91 10.74L45.91 10.74L45.91 10.74Q45.59 10.74 45.18 10.64L45.18 10.64L45.18 10.64Q44.99 10.59 44.82 10.54L44.82 10.54L44.82 10.54Q44.65 10.49 44.50 10.41ZM44.50 6.49L44.50 9.58L45.22 9.93L45.22 9.93Q45.71 10.15 46.31 10.15L46.31 10.15L46.31 10.15Q47.25 10.15 47.89 9.23L47.89 9.23L47.89 9.23Q48.20 8.77 48.36 8.20L48.36 8.20L48.36 8.20Q48.53 7.64 48.53 6.97L48.53 6.97L48.53 6.97Q48.53 5.56 47.93 4.77L47.93 4.77L47.93 4.77Q47.33 3.97 46.21 3.97L46.21 3.97L46.21 3.97Q45.37 3.97 44.94 4.61L44.94 4.61L44.94 4.61Q44.50 5.25 44.50 6.49L44.50 6.49ZM51.47 3.88L51.47 7.92L51.47 7.92Q51.47 8.96 51.67 9.42L51.67 9.42L51.67 9.42Q51.87 9.88 52.34 9.88L52.34 9.88L52.34 9.88Q52.68 9.88 52.94 9.71L52.94 9.71L52.94 9.71Q53.20 9.54 53.39 9.37L53.39 9.37L53.64 9.62L53.64 9.62Q53.52 9.82 53.31 10.04L53.31 10.04L53.31 10.04Q53.18 10.19 53.00 10.35L53.00 10.35L53.00 10.35Q52.58 10.74 51.89 10.74L51.89 10.74L51.89 10.74Q51.22 10.74 50.82 10.28L50.82 10.28L50.82 10.28Q50.42 9.83 50.42 9.02L50.42 9.02L50.42 3.88L49.59 3.94L49.59 3.54L50.42 3.30L50.35 1.60L51.53 1.27L51.47 3.31L53.26 3.29L53.00 3.91L51.47 3.88ZM54.81 0.98L54.81 0.98L54.81 0.98Q54.81 0.68 55.01 0.48L55.01 0.48L55.01 0.48Q55.21 0.27 55.55 0.24L55.55 0.24L55.55 0.24Q55.85 0.24 56.06 0.46L56.06 0.46L56.06 0.46Q56.27 0.67 56.27 0.97L56.27 0.97L56.27 0.97Q56.27 1.27 56.08 1.47L56.08 1.47L56.08 1.47Q55.88 1.67 55.55 1.70L55.55 1.70L55.55 1.70Q55.26 1.70 55.02 1.49L55.02 1.49L55.02 1.49Q54.81 1.25 54.81 0.98ZM56.07 5.03L56.07 7.82L56.12 10.07L56.93 10.22L56.93 10.57L55.55 10.53L54.15 10.57L54.15 10.22L54.99 10.07L55.02 7.83L55.02 6.33L54.95 3.97L54.05 3.82L54.05 3.47L54.05 3.47Q54.34 3.43 54.62 3.39L54.62 3.39L54.62 3.39Q54.89 3.35 54.94 3.34L54.94 3.34L55.83 3.11L56.10 3.11L56.07 5.03ZM63.79 6.92L63.79 6.92L63.79 6.92Q63.79 8.58 62.77 9.66L62.77 9.66L62.77 9.66Q61.74 10.74 60.15 10.74L60.15 10.74L60.15 10.74Q58.56 10.74 57.57 9.66L57.57 9.66L57.57 9.66Q57.11 9.14 56.86 8.45L56.86 8.45L56.86 8.45Q56.62 7.76 56.62 6.92L56.62 6.92L56.62 6.92Q56.62 5.27 57.65 4.19L57.65 4.19L57.65 4.19Q58.68 3.11 60.27 3.11L60.27 3.11L60.27 3.11Q61.86 3.11 62.83 4.18L62.83 4.18L62.83 4.18Q63.79 5.25 63.79 6.92ZM62.67 6.92L62.67 6.92L62.67 6.92Q62.67 5.55 61.94 4.62L61.94 4.62L61.94 4.62Q61.21 3.68 60.12 3.68L60.12 3.68L60.12 3.68Q59.01 3.68 58.38 4.59L58.38 4.59L58.38 4.59Q57.74 5.49 57.74 6.92L57.74 6.92L57.74 6.92Q57.74 7.64 57.92 8.21L57.92 8.21L57.92 8.21Q58.11 8.78 58.48 9.26L58.48 9.26L58.48 9.26Q59.19 10.16 60.29 10.16L60.29 10.16L60.29 10.16Q61.39 10.16 62.03 9.26L62.03 9.26L62.03 9.26Q62.67 8.36 62.67 6.92ZM70.13 5.33L70.13 7.82L70.20 10.07L71.04 10.22L71.04 10.57L69.59 10.53L69.05 10.57L69.05 10.22L69.07 10.07L69.07 6.04L69.07 6.04Q69.07 4.98 68.69 4.47L68.69 4.47L68.69 4.47Q68.31 3.97 67.44 3.97L67.44 3.97L67.44 3.97Q66.52 3.97 65.99 4.71L65.99 4.71L65.99 4.71Q65.46 5.46 65.46 6.68L65.46 6.68L65.46 7.82L65.51 10.07L66.32 10.22L66.32 10.57L64.94 10.53L63.54 10.57L63.54 10.22L64.36 10.07L64.41 7.83L64.41 6.29L64.34 3.93L63.43 3.78L63.43 3.43L63.43 3.43Q63.71 3.43 63.85 3.41L63.85 3.41L63.85 3.41Q63.99 3.40 64.34 3.32L64.34 3.32L64.34 3.32Q64.79 3.25 65.25 3.11L65.25 3.11L65.54 3.11L65.42 4.59L65.42 4.59Q66.01 3.90 66.63 3.50L66.63 3.50L66.63 3.50Q67.26 3.11 67.97 3.11L67.97 3.11L67.97 3.11Q68.93 3.11 69.53 3.72L69.53 3.72L69.53 3.72Q70.13 4.33 70.13 5.33L70.13 5.33Z"></path></g><!----><!----></svg>